<?xml version="1.0" standalone="no"?><!DOCTYPE svg PUBLIC "-//W3C//DTD SVG 1.1//EN" "http://www.w3.org/Graphics/SVG/1.1/DTD/svg11.dtd"><svg t="1715096777638" class="icon" viewBox="0 0 1024 1024" version="1.1" xmlns="http://www.w3.org/2000/svg" p-id="1041" xmlns:xlink="http://www.w3.org/1999/xlink" width="128" height="128"><path d="M736 352a32 32 0 0 1 31.264 25.088c4.384 18.816 9.792 32.256 15.232 39.712l2.336 3.008c0.8 0.896 1.088 1.024 1.28 1.024 46.624 0 65.76 39.68 65.088 101.024a32 32 0 0 1-64-0.704c0.192-16.32-1.344-28.16-3.776-34.944l-0.608-1.504-1.92-0.032a65.088 65.088 0 0 1-12.896-2.24V736c0 57.824-66.816 96-144 96S480 793.824 480 736s66.816-96 144-96c29.184 0 56.864 5.44 80.032 15.36L704 384.704c0-1.408 0.032-2.816 0.192-4.224L704 384a32 32 0 0 1 32-32zM416 704a32 32 0 0 1 0 64H224a32 32 0 0 1 0-64h192z m208 0c-46.528 0-80 19.136-80 32s33.472 32 80 32 80-19.136 80-32-33.472-32-80-32zM544 448a32 32 0 0 1 0 64H224a32 32 0 0 1 0-64h320z m256-256a32 32 0 0 1 0 64H224a32 32 0 1 1 0-64h576z" fill="#000000" p-id="1042"></path></svg>