<?xml version="1.0" standalone="no"?><!DOCTYPE svg PUBLIC "-//W3C//DTD SVG 1.1//EN" "http://www.w3.org/Graphics/SVG/1.1/DTD/svg11.dtd"><svg t="1715096786749" class="icon" viewBox="0 0 1024 1024" version="1.1" xmlns="http://www.w3.org/2000/svg" p-id="1375" xmlns:xlink="http://www.w3.org/1999/xlink" width="128" height="128"><path d="M635.04 202.88a96 96 0 0 1 83.136 48l123.072 213.12a96 96 0 0 1 0 96l-123.072 213.12a96 96 0 0 1-83.136 48h-246.08a96 96 0 0 1-83.136-48L182.72 560a96 96 0 0 1 0-96l123.072-213.12a96 96 0 0 1 83.136-48z m0 64h-246.08a32 32 0 0 0-27.712 16L238.176 496a32 32 0 0 0 0 32l123.072 213.12a32 32 0 0 0 27.712 16h246.08a32 32 0 0 0 27.712-16l123.072-213.12a32 32 0 0 0 0-32L662.72 282.88a32 32 0 0 0-27.712-16zM512 384a128 128 0 1 1 0 256 128 128 0 0 1 0-256z m0 64a64 64 0 1 0 0 128 64 64 0 0 0 0-128z" fill="#000000" p-id="1376"></path></svg>