<?xml version="1.0" standalone="no"?><!DOCTYPE svg PUBLIC "-//W3C//DTD SVG 1.1//EN" "http://www.w3.org/Graphics/SVG/1.1/DTD/svg11.dtd"><svg t="1713624904061" class="icon" viewBox="0 0 1024 1024" version="1.1" xmlns="http://www.w3.org/2000/svg" p-id="19117" xmlns:xlink="http://www.w3.org/1999/xlink" width="64" height="64"><path d="M765.184 129.536l73.898667 42.666667L790.656 256H896v85.333333h-85.333333v170.666667h85.333333v85.333333h-85.333333v298.666667h-85.333334v-298.666667h-131.584c-13.866667 122.112-66.730667 230.144-143.786666 306.901334l-66.645334-54.186667c64.853333-61.354667 110.762667-150.272 124.458667-252.672L426.666667 597.333333v-85.333333l85.333333-0.042667V341.333333h-85.333333V256h105.258666l-48.341333-83.797333 73.898667-42.666667L630.485333 256h61.610667l73.088-126.464zM213.333333 588.928l-85.333333 22.869333v-88.362666l85.333333-22.869334V341.333333H128V256h85.333333V128h85.333334v128h85.333333v85.333333H298.666667v136.405334l85.333333-22.869334v88.32l-85.333333 22.869334V789.333333A106.666667 106.666667 0 0 1 192 896H128v-85.333333h64a21.333333 21.333333 0 0 0 20.992-17.493334L213.333333 789.333333v-200.405333zM725.333333 341.333333h-128v170.666667h128V341.333333z" fill="#337ab7" fill-opacity=".9" p-id="19118"></path></svg>
