<?xml version="1.0" standalone="no"?><!DOCTYPE svg PUBLIC "-//W3C//DTD SVG 1.1//EN" "http://www.w3.org/Graphics/SVG/1.1/DTD/svg11.dtd"><svg t="1712156163835" class="icon" viewBox="0 0 1024 1024" version="1.1" xmlns="http://www.w3.org/2000/svg" p-id="8061" xmlns:xlink="http://www.w3.org/1999/xlink" width="64" height="64"><path d="M562.454112 1018.938728l-1.721201-9.041934c-1.588171-8.344039-3.184529-16.687054-4.78191-25.029046-3.400446-17.768689-6.91755-36.142152-10.290367-54.243415-21.273513-114.146737-54.349839-224.405933-98.342796-327.83763-9.870812 4.729721-19.839861 9.406231-29.538757 13.954827-27.191292 12.753465-55.308677 25.942859-81.82254 40.593534-31.617092 17.472953-62.467727 38.078247-92.302219 58.005089-3.298116 2.202155-6.595208 4.405333-9.892301 6.603395-21.833261 14.549368-43.538609 30.283724-64.528666 45.499263-6.167466 4.469801-12.33391 8.939603-18.514679 13.389962-0.284479 0.233314-0.795109 0.997724-0.912789 1.387603-15.567557 62.237483-22.175045 119.710452-20.192901 175.678138 0.299829 8.463766 0.691755 16.824177 1.106194 25.676799 0.193405 4.126994 0.388856 8.305153 0.578168 12.559037l0.487094 10.951423-41.092907 2.418073-3.294023-39.587624 0-60.750619 0.179079-0.986467c0.121773-0.672312 0.268106-1.344624 0.417509-2.015913 0.11768-0.530073 0.277316-1.254573 0.298805-1.5104 1.445932-35.998889 8.16496-71.432912 14.662955-105.70139 1.030469-5.435803 2.061962-10.873652 3.072989-16.315594 9.595542-51.639101 30.997991-98.475825 65.432245-143.18612 20.506033-26.625404 43.218314-52.601009 67.668169-77.399811-10.658757-1.037632-21.907962-3.042289-34.008558-6.04774-48.240701-11.983939-80.135108-40.726563-94.796016-85.429695-13.890358-42.35362-15.284101-87.00354-4.14132-132.710534 7.862062-32.249495 26.226315-61.921281 57.793264-93.377714 3.481288-3.469008 6.995321-6.730285 10.638291-10.05296-1.162476-0.800225-2.316765-1.555425-3.472078-2.254344-27.299763-16.48444-33.081443-49.13507-26.89965-72.496128 7.369851-27.858488 26.750247-46.795792 57.600883-56.287981 13.429871-4.13211 27.76332-6.055926 45.107337-6.055926 10.037611 0 20.151969 0.664126 28.723182 1.313925 17.068747 1.294482 34.717709 2.631944 52.261271 4.246721 0.776689 0.071631 1.526773 0.107447 2.228761 0.107447 4.854565 0 8.410554-1.38351 12.222369-8.454556 6.384407-11.845793 14.046924-23.970948 22.774703-36.038798 15.257495-21.097504 34.641985-34.863019 57.615209-40.914852 3.0208-0.796132 6.010901-1.452071 8.901741-2.086521 1.27197-0.279363 2.543939-0.558725 3.813862-0.848321l1.223874-0.279363 24.606421 0 1.231037 0.283456c3.608178 0.829901 7.336082 1.627057 10.942213 2.39863 8.235568 1.760087 16.751522 3.580548 25.146727 6.055926 29.381168 8.66331 54.328349 22.812565 74.14979 42.055838 38.181601 37.069267 50.539047 82.379219 36.729529 134.671189-12.529361 47.449685-31.715329 96.682993-59.898205 153.503093 21.871123-9.174963 41.669028-15.442714 61.058634-19.388583 8.963139-1.824555 17.824971-2.749624 26.340925-2.749624 31.533181 0 60.090587 12.5662 84.880179 37.346583 30.255071 30.244838 51.491745 68.883857 64.923662 118.123304 5.725398 20.995173 15.075347 28.444842 35.727713 28.469402l0.186242 0c10.579963 0 20.972661-1.054005 30.890544-3.133364 12.811794-2.686179 23.843034-10.67206 35.770691-25.895787 17.924231-22.87601 28.351722-49.984415 35.433-71.046103 3.993964-11.878538 7.476275-23.77652 11.165294-36.371372 1.63422-5.583159 3.324722-11.355629 5.062296-17.122983l2.90312-9.636474 37.554314 7.339152 0 14.244422-0.451278 1.534959c-0.973164 3.311419-1.939165 6.623861-2.907213 9.936303-2.071172 7.098675-4.212952 14.436804-6.387477 21.660322-9.046027 30.046317-21.160949 64.968687-42.424228 96.173386-18.602683 27.298739-39.124066 43.157939-64.585971 49.90869-12.262278 3.251044-24.576745 4.898567-36.599569 4.898567-7.482415 0-14.981203-0.64059-22.285562-1.904373-30.435173-5.265934-50.855248-24.581861-59.050907-55.859215-9.679453-36.942377-24.76708-67.170842-46.12655-92.415806-4.513804-5.335519-9.661034-10.188037-14.100136-14.230096-14.7264-13.411451-31.049157-19.930935-49.90562-19.930935-7.009647 0-14.470573 0.932232-22.171975 2.771113-34.669614 8.278547-67.629283 22.264073-100.456946 42.653449 5.255701 3.50687 10.32209 6.813173 15.582907 9.728572 33.44574 18.541285 59.548234 46.740534 79.799464 86.211501 19.097964 37.22174 29.388331 78.777181 31.461549 127.041418 1.367137 31.824823 6.66684 57.31231 16.679891 80.211856 19.286252 44.107567 52.724829 69.75162 102.226243 78.398558 12.596899 2.200108 23.77345 3.269463 34.170241 3.269463 13.780865 0 26.232454-1.863441 38.064944-5.697769 24.178679-7.835456 45.007053-21.6286 63.676252-42.167379 0.748037-0.821715 1.487887-1.645476 2.318812-2.571568l8.209986-9.123798 32.803103 24.5133-6.957459 8.948813c-0.451278 0.579191-0.859577 1.12666-1.245364 1.64343-0.941442 1.258667-1.914606 2.560312-3.111874 3.87833-37.719066 41.528835-83.136465 62.585407-134.988414 62.585407-8.854669 0-18.035772-0.618077-27.28646-1.837858-35.992749-4.745071-65.316611-15.594163-89.645716-33.164331-33.851992-24.448832-56.253188-59.183937-68.481697-106.190531-5.303796-20.393469-6.856152-41.061185-8.356318-61.049424-0.411369-5.490038-0.838088-11.167341-1.334391-16.705474-5.063319-56.447617-23.276123-100.803847-55.682183-135.604444-8.320503-8.934486-18.97619-16.455787-29.176506-23.39278-18.059308-12.281721-36.57808-24.590048-54.487985-36.493146-22.530133-14.97404-45.827745-30.458709-68.518536-46.093804-53.308113-36.731576-107.121739-74.589812-159.162999-111.202685l-20.367887-14.32731c-3.768837 3.825119-7.603165 7.598049-11.330046 11.265578-9.126868 8.980535-17.748223 17.46272-25.588795 26.732851-24.304546 28.733415-34.615379 64.533782-31.520901 109.445668 1.181919 17.159822 3.491521 31.986505 7.057743 45.326325 8.457626 31.631418 27.830859 51.488675 59.225893 60.706617 18.032702 5.294586 32.667004 7.760754 46.053895 7.760754 9.364275 0 18.071587-1.188058 26.620287-3.63069 2.737344-0.781806 5.632277-1.920746 8.696056-3.125177 1.62808-0.64059 3.287883-1.291412 5.001921-1.926886l7.679913-2.845815 22.578228 29.327956-7.320733 6.9022c-4.064572 3.832282-8.131191 7.624654-12.184507 11.405771-8.562003 7.984858-17.415648 16.241916-25.823132 24.505114-29.337165 28.826536-66.669422 67.849294-95.195106 114.125247-2.855024 4.630461-5.487991 9.382695-8.029884 14.258749 89.99978-64.513316 172.095543-111.310132 255.091816-145.527444l-38.936801-89.955778 36.830837-16.731056 4.704139 9.836019c87.853907 183.680393 142.43706 358.842785 166.870542 535.497157l1.388627 10.042727-25.693172 6.013971L562.454112 1018.943844zM244.579391 139.480728c-15.987113 0-28.485775 2.410909-39.334867 7.586792-10.610662 5.062296-16.910135 11.915377-19.823488 21.564132-3.243881 10.742668-0.650823 21.63167 6.306636 26.482141 84.594677 58.972113 169.21289 117.91148 253.831103 176.849824l30.864962 21.497617c1.619894-2.130524 3.297093-4.056386 4.922103-5.922896 2.275833-2.614547 4.426823-5.082762 5.822612-7.482415 38.532595-66.205864 65.437361-129.563868 82.250282-193.694467 9.756201-37.210483-0.431835-69.113077-30.280654-94.823646-21.435195-18.464537-47.802726-29.703509-80.607876-34.360576-3.514033-0.499373-6.968715-0.75213-10.268878-0.75213-17.585517 0-32.171724 7.002484-44.593638 21.407566-4.175089 4.842285-8.079002 10.05603-11.601222 15.496949-4.493338 6.940063-8.863878 14.243399-13.090133 21.306258-1.523703 2.544963-3.046383 5.089925-4.580319 7.627724-8.572236 14.187117-22.115694 21.906939-39.167045 22.325471-1.907443 0.046049-3.872191 0.070608-5.836939 0.070608-6.393617 0-12.985756-0.240477-20.151969-0.735757-7.459902-0.515746-14.990413-1.163499-22.272259-1.790786-10.868535-0.935302-22.106484-1.90335-33.072233-2.419096C250.553453 139.557476 247.505024 139.480728 244.579391 139.480728z" p-id="8062" fill="#337ab7"></path></svg>