<?xml version="1.0" standalone="no"?><!DOCTYPE svg PUBLIC "-//W3C//DTD SVG 1.1//EN" "http://www.w3.org/Graphics/SVG/1.1/DTD/svg11.dtd"><svg t="1712156968295" class="icon" viewBox="0 0 1024 1024" version="1.1" xmlns="http://www.w3.org/2000/svg" p-id="13405" xmlns:xlink="http://www.w3.org/1999/xlink" width="64" height="64"><path d="M882.2 956H142c-41.9 0-76-34.1-76-76V139.9c0-41.9 34.1-76 76-76h491.3c13.2 0 25.7 5.2 35 14.5l275.3 275.3c9.4 9.4 14.5 21.8 14.5 35V880c0.1 41.9-34 76-75.9 76zM142 110.1c-16.4 0-29.7 13.3-29.7 29.7V880c0 16.4 13.3 29.7 29.7 29.7h740.1c16.4 0 29.7-13.3 29.7-29.7V388.7c0-0.9-0.3-1.7-1-2.3L635.6 111.1c-0.6-0.6-1.5-1-2.3-1H142z" fill="#ffffff" p-id="13406"></path><path d="M482.4 308.4H257.7c-27.3 0-49.6-22.2-49.6-49.6V113.4c0-27.3 22.2-49.6 49.6-49.6h224.7c27.3 0 49.6 22.2 49.6 49.6v145.4c-0.1 27.3-22.3 49.6-49.6 49.6zM257.7 110.1c-1.8 0-3.3 1.5-3.3 3.3v145.4c0 1.8 1.5 3.3 3.3 3.3h224.7c1.8 0 3.3-1.5 3.3-3.3V113.4c0-1.8-1.5-3.3-3.3-3.3H257.7zM769.8 956H254.4c-27.3 0-49.6-22.2-49.6-49.6V761c0-27.3 22.2-49.6 49.6-49.6h515.4c27.3 0 49.6 22.2 49.6 49.6v145.4c0 27.3-22.3 49.6-49.6 49.6zM254.4 757.7c-1.8 0-3.3 1.5-3.3 3.3v145.4c0 1.8 1.5 3.3 3.3 3.3h515.4c1.8 0 3.3-1.5 3.3-3.3V761c0-1.8-1.5-3.3-3.3-3.3H254.4z" fill="#ffffff" p-id="13407"></path></svg>