<?xml version="1.0" standalone="no"?><!DOCTYPE svg PUBLIC "-//W3C//DTD SVG 1.1//EN" "http://www.w3.org/Graphics/SVG/1.1/DTD/svg11.dtd"><svg t="1747815867105" class="icon" viewBox="0 0 1088 1024" version="1.1" xmlns="http://www.w3.org/2000/svg" p-id="3125" xmlns:xlink="http://www.w3.org/1999/xlink" width="136" height="128"><path d="M569.664 668.672a6.656 6.656 0 0 1-4.864-2.112 7.296 7.296 0 0 1-1.984-5.056v-61.952c0-3.904 3.072-7.168 6.784-7.168h352.128c3.84 0 6.912 3.2 6.912 7.168v61.888a7.04 7.04 0 0 1-6.912 7.232H569.664z m0 152.256a6.656 6.656 0 0 1-4.864-2.112 7.296 7.296 0 0 1-1.984-5.056v-61.888a7.04 7.04 0 0 1 6.784-7.168h352.128c3.84 0 6.912 3.2 6.912 7.104v61.888a7.04 7.04 0 0 1-6.912 7.232H569.664z m505.344-408.704v544.384a54.656 54.656 0 0 1-14.976 37.76 50.304 50.304 0 0 1-36.224 15.616h-921.6a50.304 50.304 0 0 1-36.224-15.616 54.656 54.656 0 0 1-14.976-37.76V148.736c0-29.44 22.912-53.376 51.2-53.376h161.28a7.04 7.04 0 0 0 6.912-7.168V57.152c0-21.056 16.384-38.144 36.544-38.144 20.224 0 36.544 17.088 36.544 38.144v31.04a7.04 7.04 0 0 0 6.848 7.168h425.088a7.04 7.04 0 0 0 6.848-7.168V57.152c0-21.056 16.384-38.144 36.544-38.144 20.224 0 36.608 17.088 36.608 38.144v31.04a7.04 7.04 0 0 0 6.848 7.168h161.152c13.568 0 26.624 5.632 36.224 15.616 9.6 10.048 14.976 23.616 14.976 37.76v263.552h0.384v-0.064z m-72.832 64.64h-0.64v-0.576H130.88a6.656 6.656 0 0 0-4.864 2.112 7.168 7.168 0 0 0-1.984 5.12v443.136a7.04 7.04 0 0 0 6.848 7.104h864.512a7.04 7.04 0 0 0 6.784-7.168V476.864zM270.4 178.624a7.424 7.424 0 0 0-2.048-5.056 6.592 6.592 0 0 0-4.928-2.048H130.816a6.912 6.912 0 0 0-6.784 7.104v214.272a7.04 7.04 0 0 0 6.848 7.168h863.744a7.04 7.04 0 0 0 6.848-7.168V178.624a7.36 7.36 0 0 0-1.984-5.056 6.72 6.72 0 0 0-4.864-2.048h-132.416a6.72 6.72 0 0 0-4.864 2.048 7.36 7.36 0 0 0-1.984 5.056v30.912a37.312 37.312 0 0 1-36.544 38.08 37.376 37.376 0 0 1-36.608-38.08v-30.912a7.36 7.36 0 0 0-1.984-5.056 6.592 6.592 0 0 0-4.864-2.048H350.336a7.04 7.04 0 0 0-6.848 7.104v30.912a39.04 39.04 0 0 1-10.688 26.944 35.584 35.584 0 0 1-25.856 11.072 37.44 37.44 0 0 1-36.544-38.208v-30.72z m25.6 533.824a6.784 6.784 0 0 0 9.728 1.152l161.28-133.056a6.592 6.592 0 0 1 9.6 1.216l36.864 48.576a7.36 7.36 0 0 1-1.088 10.048l-224.064 184.832-0.128-0.128-86.656-114.112a7.36 7.36 0 0 1 1.152-9.984l46.592-38.528a6.72 6.72 0 0 1 9.664 1.152l36.992 48.896 0.064-0.064z" fill="#666666" p-id="3126"></path></svg>