<?xml version="1.0" standalone="no"?><!DOCTYPE svg PUBLIC "-//W3C//DTD SVG 1.1//EN" "http://www.w3.org/Graphics/SVG/1.1/DTD/svg11.dtd"><svg t="1712155423779" class="icon" viewBox="0 0 1024 1024" version="1.1" xmlns="http://www.w3.org/2000/svg" p-id="5340" xmlns:xlink="http://www.w3.org/1999/xlink" width="64" height="64"><path d="M448 768c176.725333 0 320-143.274667 320-320 0-176.725333-143.274667-320-320-320-176.725333 0-320 143.274667-320 320 0 176.725333 143.274667 320 320 320z m0 42.666667c-200.298667 0-362.666667-162.368-362.666667-362.666667S247.701333 85.333333 448 85.333333s362.666667 162.368 362.666667 362.666667-162.368 362.666667-362.666667 362.666667z m304.917333-27.584a21.333333 21.333333 0 0 1 30.165334-30.165334l150.848 150.848a21.333333 21.333333 0 0 1-30.165334 30.165334l-150.848-150.826667z" fill="#3D3D3D" p-id="5341"></path></svg>