<?xml version="1.0" standalone="no"?><!DOCTYPE svg PUBLIC "-//W3C//DTD SVG 1.1//EN" "http://www.w3.org/Graphics/SVG/1.1/DTD/svg11.dtd"><svg t="1712156370214" class="icon" viewBox="0 0 1024 1024" version="1.1" xmlns="http://www.w3.org/2000/svg" p-id="11296" xmlns:xlink="http://www.w3.org/1999/xlink" width="64" height="64"><path d="M984.51456 512c0.32768 30.91114667-2.18453333 61.93152-7.86432 92.40576-5.57056 30.47424-14.19946667 60.51157333-25.66826667 89.45664-22.82837333 57.89013333-57.344 111.30197333-100.70698666 156.41258667-43.47221333 45.11061333-96.01024 81.81077333-153.79114667 107.04213333-28.94506667 12.67029333-59.09162667 22.39146667-90.112 29.16352-30.91114667 6.66282667-62.58688 10.37653333-94.37184 10.92266667-63.46069333 1.09226667-127.46752-10.59498667-186.7776-34.51562667-29.60042667-11.90570667-58.10858667-26.86976-84.86912-44.34602667-26.65130667-17.58549333-51.77344-37.79242667-74.49258667-60.40234666s-43.25376-47.40437333-61.16693333-73.94645334c-17.80394667-26.65130667-33.09568-54.94101333-45.32906667-84.65066666-12.23338667-29.60042667-21.51765333-60.51157333-27.63434666-91.96885334S22.66453333 544.00341333 22.77376 512c0.21845333-32.00341333 3.60448-64.00682667 10.04885333-95.24565333 6.44437333-31.34805333 16.16554667-61.93152 28.61738667-91.31349334 12.56106667-29.38197333 28.07125333-57.344 46.09365333-83.5584s38.77546667-50.57194667 61.49461334-72.63573333c45.65674667-44.12757333 99.83317333-79.08010667 158.59712-102.12693333C357.00736 55.43253333 387.4816 46.80362667 418.39274667 41.23306667s62.36842667-7.97354667 93.60725333-7.53664c31.34805333 0.54613333 62.47765333 4.15061333 92.95189333 10.70421333l2.83989334 0.54613333 2.83989333 0.65536 5.67978667 1.41994667L627.78026667 49.9712l2.83989333 0.65536c0.98304 0.21845333 1.85685333 0.54613333 2.83989333 0.87381333l5.57056 1.6384 11.14112 3.38602667c3.71370667 0.98304 7.42741333 2.51221333 11.03189334 3.71370667l11.03189333 3.93216c3.71370667 1.20149333 7.20896 2.83989333 10.81344 4.25984l10.81344 4.47829333 2.73066667 1.09226667c0.87381333 0.32768 1.74762667 0.76458667 2.62144 1.20149333l5.24288 2.51221333 10.59498666 4.9152 2.62144 1.20149334 2.62144 1.31072 5.13365334 2.73066666 10.26730666 5.46133334 2.62144 1.31072 2.51221334 1.52917333 5.02442666 2.94912 10.04885334 5.89824c0.87381333 0.54613333 1.6384 0.98304 2.51221333 1.52917333l2.40298667 1.6384 4.9152 3.16757334 9.72117333 6.44437333c1.6384 0.98304 3.16757333 2.18453333 4.80597333 3.38602667l4.69674667 3.38602666 9.39349333 6.88128c1.6384 1.09226667 3.05834667 2.40298667 4.58752 3.60448l4.47829334 3.60448 9.06581333 7.31818667c5.89824 5.02442667 11.57802667 10.26730667 17.47626667 15.40096l16.71168 16.16554667c21.73610667 22.06378667 41.17845333 46.31210667 58.21781333 72.0896 17.03936 25.77749333 31.45728 53.30261333 43.14453333 81.81077333 11.68725333 28.61738667 20.64384 58.21781333 26.76053334 88.4736 6.00746667 30.25578667 9.39349333 61.16693333 9.72117333 92.07808z m-2.29376 0c0.32768-30.80192-2.29376-61.60384-8.192-91.85962667-5.78901333-30.25578667-14.85482667-59.96544-26.86976-88.36437333-23.92064-56.79786667-59.20085333-108.78976-103.10997333-151.82506667l-16.82090667-15.72864c-5.89824-4.9152-11.68725333-9.93962667-17.58549333-14.85482666l-9.17504-6.99050667-4.58752-3.49525333c-1.52917333-1.09226667-3.05834667-2.40298667-4.58752-3.49525334l-9.50272-6.5536-4.69674667-3.2768c-1.52917333-1.09226667-3.16757333-2.18453333-4.80597333-3.16757333l-9.72117334-6.11669333-4.9152-3.05834667-2.40298666-1.52917333c-0.76458667-0.54613333-1.6384-0.98304-2.51221334-1.41994667l-10.04885333-5.57056-5.02442667-2.83989333-2.51221333-1.41994667-2.51221333-1.31072-10.26730667-5.13365333-5.13365333-2.51221334-2.62144-1.31072-2.62144-1.09226666-10.48576-4.58752-5.24288-2.29376c-0.87381333-0.32768-1.74762667-0.76458667-2.62144-1.09226667l-2.73066667-0.98304c-56.79786667-22.71914667-118.07402667-33.64181333-178.91328-32.54954667s-121.13237333 14.19946667-176.40106667 38.44778667c-55.37792 24.13909333-105.62218667 59.20085333-147.23754666 102.34538667-20.86229333 21.51765333-39.54005333 45.11061333-55.81482667 70.12352s-30.03733333 51.66421333-41.06922667 79.29856c-11.14112 27.63434667-19.44234667 56.36096-24.90368 85.52448-5.57056 29.16352-8.192 58.9824-7.97354666 88.58282666 0.21845333 29.70965333 3.2768 59.31008 9.17504 88.36437334 5.78901333 29.05429333 14.52714667 57.56245333 25.88672 84.86912 22.71914667 54.72256 56.25173333 104.96682667 97.97632 147.12832 20.86229333 21.08074667 43.79989333 40.19541333 68.37589333 56.90709333s50.68117333 31.1296 78.09706667 42.81685333c27.30666667 11.79648 55.92405333 20.75306667 85.08757333 26.97898667l11.03189333 2.18453333 5.46133334 1.09226667 2.73066666 0.54613333c0.87381333 0.10922667 1.85685333 0.21845333 2.73066667 0.43690667l11.14112 1.52917333 5.57056 0.76458667c1.85685333 0.21845333 3.71370667 0.54613333 5.57056 0.65536 7.42741333 0.65536 14.85482667 1.41994667 22.39146667 2.07530667l22.39146666 0.98304c59.85621333 0.98304 120.14933333-9.61194667 176.29184-31.56650667 56.14250667-21.95456 108.1344-55.26869333 151.93429334-97.43018667 21.95456-21.08074667 41.72458667-44.34602667 59.20085333-69.46816 17.36704-25.01290667 32.33109333-51.88266667 44.56448-79.95392 12.12416-28.07125333 21.51765333-57.45322667 27.96202667-87.49056 6.11669333-29.81888 9.61194667-60.51157333 10.04885333-91.31349333z" p-id="11297" fill="#337ab7"></path><path d="M941.91616 512c0.10922667 28.18048-2.51221333 56.25173333-7.86432 83.88608s-13.43488 54.72256-24.13909333 80.82773333c-10.59498667 26.10517333-23.81141333 51.11808-39.3216 74.71104-15.51018667 23.59296-33.42336 45.54752-53.19338667 65.75445334-39.64928 40.30464-87.27210667 72.85418667-139.48245333 95.0272-26.10517333 11.14112-53.30261333 19.55157333-81.15541334 25.34058666s-56.25173333 8.73813333-84.65066666 9.06581334c-56.90709333 0.54613333-114.03264-10.37653333-166.89834667-31.89418667s-101.36234667-53.73952-141.99466667-94.04416c-40.52309333-40.30464-73.07264-88.69205333-94.91797333-141.55776-10.92266667-26.43285333-19.22389333-53.95797333-24.79445333-82.02922667-5.46133333-28.07125333-8.192-56.68864-8.192-85.1968 0.21845333-57.12554667 11.79648-114.25109333 33.86026666-166.78912 22.17301333-52.64725333 54.83178667-100.59776 95.35488-140.57472 40.63232-39.86773333 88.91050667-71.76192 141.55776-93.06112 26.32362667-10.59498667 53.63029333-18.67776 81.48309334-23.92064s56.14250667-7.75509333 84.43221333-7.64586666c28.28970667 0.21845333 56.47018667 3.16757333 84.21376 8.84736l2.62144 0.43690666 2.62144 0.65536 5.13365333 1.20149334 10.26730667 2.40298666 2.62144 0.65536c0.87381333 0.21845333 1.74762667 0.43690667 2.51221333 0.76458667l5.13365334 1.52917333 10.15808 2.94912c3.38602667 0.87381333 6.66282667 2.18453333 10.04885333 3.2768l10.04885333 3.49525334c3.38602667 1.09226667 6.5536 2.51221333 9.8304 3.82293333l9.8304 3.93216c25.99594667 10.92266667 50.89962667 24.46677333 74.27413334 40.19541333 23.37450667 15.83786667 45.11061333 33.86026667 64.98986666 53.73952 39.64928 39.97696 71.54346667 87.59978667 92.95189334 139.70090667 21.2992 51.99189333 32.44032 108.24362667 32.65877333 164.49536z m-0.43690667 0c0-28.07125333-2.62144-56.25173333-8.08277333-83.77685333-5.46133333-27.63434667-13.65333333-54.61333333-24.46677333-80.60928-21.51765333-51.99189333-53.52106667-99.50549333-93.3888-139.15477334s-87.59978667-71.10656-139.59168-92.40576c-51.88266667-21.2992-108.02517333-31.78496-163.94922667-31.45728-55.92405333 0.43690667-111.73888 11.90570667-163.07541333 33.75104-51.33653333 21.73610667-98.19477333 53.73952-137.18869334 93.3888-38.99392 39.54005333-70.12352 86.8352-90.98581333 138.17173334-10.48576 25.66826667-18.45930667 52.31957333-23.70218667 79.51701333-5.24288 27.19744-7.86432 54.83178667-7.75509333 82.57536 0.21845333 55.37792 11.14112 110.64661333 32.33109333 161.65546667 21.18997333 51.11808 52.4288 97.97632 91.42272 137.18869333 19.55157333 19.55157333 40.85077333 37.35552 63.8976 52.86570667 22.9376 15.51018667 47.40437333 28.72661333 72.96341334 39.54005333s52.10112 19.11466667 79.29856 24.68522667 54.94101333 8.51968 82.68458666 8.84736c27.8528 0.21845333 55.59637333-2.29376 83.01226667-7.42741334 27.30666667-5.13365333 54.17642667-12.99797333 80.06314667-23.48373333 51.77344-20.86229333 99.39626667-52.10112 139.264-91.42272 39.97696-39.21237333 71.98037333-86.61674667 93.82570666-138.28096 21.95456-51.77344 33.20490667-107.91594667 33.42336-164.16768z" p-id="11298" fill="#337ab7"></path><path d="M385.07861333 181.26165333c24.68522667 0 37.57397333 0.65536 38.66624 1.96608 0.98304 1.31072 0.54613333 7.53664-1.52917333 18.67776-2.07530667 10.37653333-5.02442667 21.51765333-9.06581333 33.53258667-2.07530667 9.50272-6.00746667 21.95456-12.12416 37.46474667-5.02442667 12.88874667-7.53664 19.55157333-7.53664 19.98848 0 0.43690667 54.50410667 0.65536 163.62154666 0.65536h165.04149334V281.96864H787.2512v192.34816c0 128.23210667-0.98304 196.28032-3.05834667 204.03541333-3.05834667 7.75509333-6.5536 15.29173333-10.59498666 22.60992-4.04138667 7.31818667-9.61194667 13.98101333-16.71168 19.98848s-13.1072 9.50272-18.13162667 10.37653334c-5.02442667 0.87381333-9.06581333 0.87381333-12.12416 0h-4.58752V318.12266667H378.30656l-4.58752 9.06581333c-3.05834667 5.13365333-8.62890667 12.45184-16.71168 21.95456-7.09973333 10.37653333-14.19946667 18.67776-21.18997333 25.23136-7.09973333 6.44437333-15.61941333 13.54410667-25.77749334 21.2992-10.15808 8.62890667-20.75306667 15.94709333-31.78496 21.95456-13.1072 8.62890667-26.76053333 16.384-40.85077333 23.26528-15.18250667 7.75509333-23.48373333 11.57802667-25.01290667 11.57802667s-2.29376-2.18453333-2.29376-6.44437334c0-4.25984 3.05834667-9.06581333 9.06581334-14.19946666 8.08277333-6.00746667 15.94709333-12.88874667 23.48373333-20.64384 7.53664-7.75509333 15.94709333-16.82090667 25.01290667-27.08821334 7.09973333-10.37653333 14.09024-21.08074667 21.18997333-32.33109333 6.00746667-10.37653333 11.57802667-21.08074667 16.71168-32.33109333 5.02442667-9.50272 10.59498667-22.82837333 16.71168-39.97696 7.09973333-17.25781333 12.12416-31.45728 15.18250667-42.5984 4.04138667-12.88874667 6.5536-24.576 7.53664-34.84330667 0.98304-11.14112 1.96608-17.25781333 3.05834666-18.0224-0.10922667-1.85685333 12.23338667-2.73066667 37.02784-2.73066667z m-38.66624 231.12362667L379.83573333 413.696l1.52917334 5.13365333v5.13365334h184.81152V413.696l33.31413333-1.31072h33.31413333v83.88608c0 56.79786667-0.98304 88.25514667-3.05834666 94.26261333-2.07530667 5.13365333-5.02442667 11.25034667-9.06581334 18.0224-4.04138667 6.88128-7.53664 12.45184-10.59498666 16.82090667-4.04138667 4.36906667-8.62890667 8.192-13.65333334 11.57802667-5.02442667 2.62144-11.14112 3.82293333-18.13162666 3.82293333h-12.12416v-38.66624H370.87914667l-1.52917334 5.13365333c-0.98304 2.62144-4.25984 7.31818667-9.8304 14.19946667s-10.81344 11.79648-15.94709333 14.85482667c-5.02442667 3.05834667-11.14112 4.47829333-18.13162667 4.47829333h-12.12416V412.38528h33.09568z m127.24906667 37.46474667h-92.40576v59.41930666c0 39.64928-0.54613333 60.73002667-1.52917333 63.24224v5.13365334h186.34069333v-127.7952h-92.40576z" p-id="11299" fill="#337ab7"></path><path d="M345.10165333 739.40992l18.0224-2.18453333c0.43690667 9.93962667 2.62144 16.82090667 6.44437334 20.53461333 3.82293333 3.71370667 9.17504 5.57056 15.94709333 5.57056 5.02442667 0 9.28426667-0.98304 12.99797333-2.94912 3.60448-1.96608 6.11669333-4.69674667 7.53664-8.08277333 1.41994667-3.38602667 2.07530667-8.84736 2.07530667-16.384v-90.00277334H427.89546667V734.8224c0 10.92266667-1.52917333 19.44234667-4.58752 25.44981333-3.05834667 6.00746667-7.86432 10.59498667-14.52714667 13.76256-6.66282667 3.16757333-14.41792 4.69674667-23.26528 4.69674667-13.21642667 0-23.37450667-3.2768-30.36501333-9.93962667-6.99050667-6.66282667-10.37653333-16.384-10.04885334-29.38197333zM529.69472 776.43776v-13.87178667c-8.51968 10.70421333-19.98848 16.05632-34.62485333 16.05632-6.44437333 0-12.45184-1.09226667-18.0224-3.16757333-5.57056-2.18453333-9.72117333-4.80597333-12.45184-8.08277333s-4.58752-7.20896-5.67978667-11.90570667c-0.76458667-3.16757333-1.09226667-8.192-1.09226667-14.96405333v-58.65472h18.45930667v52.53802666c0 8.41045333 0.32768 13.98101333 1.09226667 16.93013334 1.20149333 4.25984 3.60448 7.53664 7.42741333 9.93962666 3.71370667 2.40298667 8.41045333 3.60448 13.98101333 3.60448s10.70421333-1.20149333 15.61941334-3.71370666 8.30122667-5.78901333 10.37653333-10.04885334c1.96608-4.25984 3.05834667-10.37653333 3.05834667-18.45930666v-50.68117334h18.45930666v94.69952h-16.60245333z m-10.59498667-106.38677333h-14.85482666l-23.70218667-24.90368h24.79445333l13.76256 24.90368z" p-id="11300" fill="#337ab7"></path></svg>